<mxfile host="app.diagrams.net" modified="2023-05-23T19:39:12.544Z" agent="Mozilla/5.0 (Windows NT 10.0; Win64; x64) AppleWebKit/537.36 (KHTML, like Gecko) Chrome/113.0.0.0 Safari/537.36" etag="bz09o2Mz3o_N1bwqLDWe" version="21.2.9" type="github">
  <diagram id="R2lEEEUBdFMjLlhIrx00" name="Page-1">
    <mxGraphModel dx="1035" dy="532" grid="1" gridSize="10" guides="1" tooltips="1" connect="1" arrows="1" fold="1" page="1" pageScale="1" pageWidth="1100" pageHeight="850" math="0" shadow="0" extFonts="Permanent Marker^https://fonts.googleapis.com/css?family=Permanent+Marker">
      <root>
        <mxCell id="0" />
        <mxCell id="1" parent="0" />
        <mxCell id="mcekP03rQafFfVdzX8bU-13" style="edgeStyle=orthogonalEdgeStyle;rounded=0;orthogonalLoop=1;jettySize=auto;html=1;exitX=1;exitY=0.5;exitDx=0;exitDy=0;entryX=0;entryY=0.5;entryDx=0;entryDy=0;" edge="1" parent="1" source="mcekP03rQafFfVdzX8bU-1" target="mcekP03rQafFfVdzX8bU-2">
          <mxGeometry relative="1" as="geometry" />
        </mxCell>
        <mxCell id="mcekP03rQafFfVdzX8bU-14" style="edgeStyle=orthogonalEdgeStyle;rounded=0;orthogonalLoop=1;jettySize=auto;html=1;exitX=0;exitY=0.5;exitDx=0;exitDy=0;entryX=0.794;entryY=0.04;entryDx=0;entryDy=0;entryPerimeter=0;" edge="1" parent="1" source="mcekP03rQafFfVdzX8bU-1" target="mcekP03rQafFfVdzX8bU-3">
          <mxGeometry relative="1" as="geometry" />
        </mxCell>
        <mxCell id="mcekP03rQafFfVdzX8bU-15" style="edgeStyle=orthogonalEdgeStyle;rounded=0;orthogonalLoop=1;jettySize=auto;html=1;exitX=0.25;exitY=1;exitDx=0;exitDy=0;entryX=0.815;entryY=0.025;entryDx=0;entryDy=0;entryPerimeter=0;" edge="1" parent="1" source="mcekP03rQafFfVdzX8bU-1" target="mcekP03rQafFfVdzX8bU-4">
          <mxGeometry relative="1" as="geometry" />
        </mxCell>
        <mxCell id="mcekP03rQafFfVdzX8bU-16" style="edgeStyle=orthogonalEdgeStyle;rounded=0;orthogonalLoop=1;jettySize=auto;html=1;exitX=0.5;exitY=1;exitDx=0;exitDy=0;entryX=0.5;entryY=0;entryDx=0;entryDy=0;" edge="1" parent="1" source="mcekP03rQafFfVdzX8bU-1" target="mcekP03rQafFfVdzX8bU-5">
          <mxGeometry relative="1" as="geometry" />
        </mxCell>
        <mxCell id="mcekP03rQafFfVdzX8bU-17" style="edgeStyle=orthogonalEdgeStyle;rounded=0;orthogonalLoop=1;jettySize=auto;html=1;exitX=0.75;exitY=1;exitDx=0;exitDy=0;entryX=-0.001;entryY=0.315;entryDx=0;entryDy=0;entryPerimeter=0;" edge="1" parent="1" source="mcekP03rQafFfVdzX8bU-1" target="mcekP03rQafFfVdzX8bU-7">
          <mxGeometry relative="1" as="geometry" />
        </mxCell>
        <mxCell id="mcekP03rQafFfVdzX8bU-18" style="edgeStyle=orthogonalEdgeStyle;rounded=0;orthogonalLoop=1;jettySize=auto;html=1;exitX=1;exitY=1;exitDx=0;exitDy=0;entryX=0.053;entryY=0.278;entryDx=0;entryDy=0;entryPerimeter=0;" edge="1" parent="1" source="mcekP03rQafFfVdzX8bU-1" target="mcekP03rQafFfVdzX8bU-6">
          <mxGeometry relative="1" as="geometry" />
        </mxCell>
        <mxCell id="mcekP03rQafFfVdzX8bU-1" value="CLIENTE" style="rounded=0;whiteSpace=wrap;html=1;fillColor=#dae8fc;strokeColor=#6c8ebf;" vertex="1" parent="1">
          <mxGeometry x="110" y="180" width="90" height="40" as="geometry" />
        </mxCell>
        <mxCell id="mcekP03rQafFfVdzX8bU-24" style="edgeStyle=orthogonalEdgeStyle;rounded=0;orthogonalLoop=1;jettySize=auto;html=1;exitX=1;exitY=0.5;exitDx=0;exitDy=0;entryX=0;entryY=0.5;entryDx=0;entryDy=0;" edge="1" parent="1" source="mcekP03rQafFfVdzX8bU-2" target="mcekP03rQafFfVdzX8bU-23">
          <mxGeometry relative="1" as="geometry" />
        </mxCell>
        <mxCell id="mcekP03rQafFfVdzX8bU-2" value="REALIZA" style="rhombus;whiteSpace=wrap;html=1;fillColor=#e3c800;strokeColor=#B09500;fontColor=#000000;" vertex="1" parent="1">
          <mxGeometry x="300" y="165" width="110" height="70" as="geometry" />
        </mxCell>
        <mxCell id="mcekP03rQafFfVdzX8bU-3" value="&lt;font style=&quot;font-size: 10px;&quot;&gt;ID_CLIENTE&lt;/font&gt;" style="ellipse;whiteSpace=wrap;html=1;fillColor=#f8cecc;strokeColor=#b85450;" vertex="1" parent="1">
          <mxGeometry x="10" y="220" width="90" height="50" as="geometry" />
        </mxCell>
        <mxCell id="mcekP03rQafFfVdzX8bU-4" value="&lt;font style=&quot;font-size: 10px;&quot;&gt;NOMBRE_CLIENTE&lt;/font&gt;" style="ellipse;whiteSpace=wrap;html=1;fillColor=#f8cecc;strokeColor=#b85450;" vertex="1" parent="1">
          <mxGeometry x="30" y="280" width="100" height="50" as="geometry" />
        </mxCell>
        <mxCell id="mcekP03rQafFfVdzX8bU-5" value="&lt;font style=&quot;font-size: 10px;&quot;&gt;DIRECCION_CLIENTE&amp;nbsp;&lt;/font&gt;" style="ellipse;whiteSpace=wrap;html=1;fillColor=#f8cecc;strokeColor=#b85450;" vertex="1" parent="1">
          <mxGeometry x="100" y="330" width="110" height="60" as="geometry" />
        </mxCell>
        <mxCell id="mcekP03rQafFfVdzX8bU-6" value="&lt;font style=&quot;font-size: 10px;&quot;&gt;CORREO_CLIENTE&amp;nbsp;&lt;/font&gt;" style="ellipse;whiteSpace=wrap;html=1;fillColor=#f8cecc;strokeColor=#b85450;" vertex="1" parent="1">
          <mxGeometry x="210" y="217.5" width="100" height="55" as="geometry" />
        </mxCell>
        <mxCell id="mcekP03rQafFfVdzX8bU-7" value="&lt;font style=&quot;font-size: 10px;&quot;&gt;TELEFONO_CLIENTE&amp;nbsp;&lt;/font&gt;" style="ellipse;whiteSpace=wrap;html=1;fillColor=#f8cecc;strokeColor=#b85450;" vertex="1" parent="1">
          <mxGeometry x="190" y="280" width="110" height="60" as="geometry" />
        </mxCell>
        <mxCell id="mcekP03rQafFfVdzX8bU-19" value="1:N" style="text;html=1;align=center;verticalAlign=middle;resizable=0;points=[];autosize=1;strokeColor=none;fillColor=none;" vertex="1" parent="1">
          <mxGeometry x="335" y="130" width="40" height="30" as="geometry" />
        </mxCell>
        <mxCell id="mcekP03rQafFfVdzX8bU-40" style="edgeStyle=orthogonalEdgeStyle;rounded=0;orthogonalLoop=1;jettySize=auto;html=1;exitX=0.5;exitY=0;exitDx=0;exitDy=0;entryX=0.5;entryY=1;entryDx=0;entryDy=0;" edge="1" parent="1" source="mcekP03rQafFfVdzX8bU-23" target="mcekP03rQafFfVdzX8bU-38">
          <mxGeometry relative="1" as="geometry" />
        </mxCell>
        <mxCell id="mcekP03rQafFfVdzX8bU-48" style="edgeStyle=orthogonalEdgeStyle;rounded=0;orthogonalLoop=1;jettySize=auto;html=1;exitX=0.5;exitY=1;exitDx=0;exitDy=0;entryX=0.5;entryY=0;entryDx=0;entryDy=0;" edge="1" parent="1" source="mcekP03rQafFfVdzX8bU-23" target="mcekP03rQafFfVdzX8bU-47">
          <mxGeometry relative="1" as="geometry" />
        </mxCell>
        <mxCell id="mcekP03rQafFfVdzX8bU-68" style="edgeStyle=orthogonalEdgeStyle;rounded=0;orthogonalLoop=1;jettySize=auto;html=1;exitX=1;exitY=1;exitDx=0;exitDy=0;" edge="1" parent="1" source="mcekP03rQafFfVdzX8bU-23" target="mcekP03rQafFfVdzX8bU-66">
          <mxGeometry relative="1" as="geometry" />
        </mxCell>
        <mxCell id="mcekP03rQafFfVdzX8bU-23" value="PEDIDO" style="rounded=0;whiteSpace=wrap;html=1;fillColor=#dae8fc;strokeColor=#6c8ebf;" vertex="1" parent="1">
          <mxGeometry x="460" y="180" width="90" height="40" as="geometry" />
        </mxCell>
        <mxCell id="mcekP03rQafFfVdzX8bU-25" value="&lt;font style=&quot;font-size: 10px;&quot;&gt;ID_PRODUCTO&lt;/font&gt;" style="ellipse;whiteSpace=wrap;html=1;fillColor=#f8cecc;strokeColor=#b85450;" vertex="1" parent="1">
          <mxGeometry x="750" y="150" width="115" height="50" as="geometry" />
        </mxCell>
        <mxCell id="mcekP03rQafFfVdzX8bU-26" value="&lt;font style=&quot;font-size: 10px;&quot;&gt;CANTIDADES&lt;/font&gt;" style="ellipse;whiteSpace=wrap;html=1;fillColor=#f8cecc;strokeColor=#b85450;" vertex="1" parent="1">
          <mxGeometry x="752.5" y="210" width="110" height="55" as="geometry" />
        </mxCell>
        <mxCell id="mcekP03rQafFfVdzX8bU-27" value="&lt;font style=&quot;font-size: 10px;&quot;&gt;ID_ORDEN_COMPRA&lt;/font&gt;" style="ellipse;whiteSpace=wrap;html=1;fillColor=#f8cecc;strokeColor=#b85450;" vertex="1" parent="1">
          <mxGeometry x="750" y="90" width="110" height="52.5" as="geometry" />
        </mxCell>
        <mxCell id="mcekP03rQafFfVdzX8bU-28" value="&lt;font style=&quot;font-size: 10px;&quot;&gt;ID_CLIENTE&amp;nbsp;&lt;/font&gt;" style="ellipse;whiteSpace=wrap;html=1;fillColor=#f8cecc;strokeColor=#b85450;" vertex="1" parent="1">
          <mxGeometry x="750" y="30" width="110" height="50" as="geometry" />
        </mxCell>
        <mxCell id="mcekP03rQafFfVdzX8bU-41" style="edgeStyle=orthogonalEdgeStyle;rounded=0;orthogonalLoop=1;jettySize=auto;html=1;exitX=1;exitY=0.5;exitDx=0;exitDy=0;entryX=0;entryY=0.5;entryDx=0;entryDy=0;" edge="1" parent="1" source="mcekP03rQafFfVdzX8bU-38" target="mcekP03rQafFfVdzX8bU-39">
          <mxGeometry relative="1" as="geometry" />
        </mxCell>
        <mxCell id="mcekP03rQafFfVdzX8bU-38" value="CONFIRMA" style="rhombus;whiteSpace=wrap;html=1;fillColor=#e3c800;strokeColor=#B09500;fontColor=#000000;" vertex="1" parent="1">
          <mxGeometry x="450" y="20" width="110" height="70" as="geometry" />
        </mxCell>
        <mxCell id="mcekP03rQafFfVdzX8bU-42" style="edgeStyle=orthogonalEdgeStyle;rounded=0;orthogonalLoop=1;jettySize=auto;html=1;exitX=1;exitY=0;exitDx=0;exitDy=0;entryX=0;entryY=0.691;entryDx=0;entryDy=0;entryPerimeter=0;" edge="1" parent="1" source="mcekP03rQafFfVdzX8bU-39" target="mcekP03rQafFfVdzX8bU-28">
          <mxGeometry relative="1" as="geometry" />
        </mxCell>
        <mxCell id="mcekP03rQafFfVdzX8bU-43" style="edgeStyle=orthogonalEdgeStyle;rounded=0;orthogonalLoop=1;jettySize=auto;html=1;exitX=1;exitY=0.25;exitDx=0;exitDy=0;entryX=0;entryY=0.5;entryDx=0;entryDy=0;" edge="1" parent="1" source="mcekP03rQafFfVdzX8bU-39" target="mcekP03rQafFfVdzX8bU-27">
          <mxGeometry relative="1" as="geometry" />
        </mxCell>
        <mxCell id="mcekP03rQafFfVdzX8bU-44" style="edgeStyle=orthogonalEdgeStyle;rounded=0;orthogonalLoop=1;jettySize=auto;html=1;exitX=1;exitY=0.75;exitDx=0;exitDy=0;entryX=0.04;entryY=0.364;entryDx=0;entryDy=0;entryPerimeter=0;" edge="1" parent="1" source="mcekP03rQafFfVdzX8bU-39" target="mcekP03rQafFfVdzX8bU-25">
          <mxGeometry relative="1" as="geometry" />
        </mxCell>
        <mxCell id="mcekP03rQafFfVdzX8bU-45" style="edgeStyle=orthogonalEdgeStyle;rounded=0;orthogonalLoop=1;jettySize=auto;html=1;exitX=1;exitY=1;exitDx=0;exitDy=0;entryX=0;entryY=0.5;entryDx=0;entryDy=0;" edge="1" parent="1" source="mcekP03rQafFfVdzX8bU-39" target="mcekP03rQafFfVdzX8bU-26">
          <mxGeometry relative="1" as="geometry" />
        </mxCell>
        <mxCell id="mcekP03rQafFfVdzX8bU-39" value="COMPRA&lt;br&gt;REALIZADA" style="rounded=0;whiteSpace=wrap;html=1;fillColor=#dae8fc;strokeColor=#6c8ebf;" vertex="1" parent="1">
          <mxGeometry x="600" y="110" width="90" height="40" as="geometry" />
        </mxCell>
        <mxCell id="mcekP03rQafFfVdzX8bU-50" style="edgeStyle=orthogonalEdgeStyle;rounded=0;orthogonalLoop=1;jettySize=auto;html=1;exitX=0.5;exitY=1;exitDx=0;exitDy=0;entryX=0.5;entryY=0;entryDx=0;entryDy=0;" edge="1" parent="1" source="mcekP03rQafFfVdzX8bU-47" target="mcekP03rQafFfVdzX8bU-49">
          <mxGeometry relative="1" as="geometry" />
        </mxCell>
        <mxCell id="mcekP03rQafFfVdzX8bU-47" value="ENGREGA" style="rhombus;whiteSpace=wrap;html=1;fillColor=#e3c800;strokeColor=#B09500;fontColor=#000000;" vertex="1" parent="1">
          <mxGeometry x="320" y="320" width="110" height="70" as="geometry" />
        </mxCell>
        <mxCell id="mcekP03rQafFfVdzX8bU-58" style="edgeStyle=orthogonalEdgeStyle;rounded=0;orthogonalLoop=1;jettySize=auto;html=1;exitX=1;exitY=0;exitDx=0;exitDy=0;entryX=0;entryY=0.5;entryDx=0;entryDy=0;" edge="1" parent="1" source="mcekP03rQafFfVdzX8bU-49" target="mcekP03rQafFfVdzX8bU-51">
          <mxGeometry relative="1" as="geometry">
            <Array as="points">
              <mxPoint x="550" y="340" />
              <mxPoint x="610" y="340" />
            </Array>
          </mxGeometry>
        </mxCell>
        <mxCell id="mcekP03rQafFfVdzX8bU-59" style="edgeStyle=orthogonalEdgeStyle;rounded=0;orthogonalLoop=1;jettySize=auto;html=1;exitX=1;exitY=0.25;exitDx=0;exitDy=0;entryX=0;entryY=0.5;entryDx=0;entryDy=0;" edge="1" parent="1" source="mcekP03rQafFfVdzX8bU-49" target="mcekP03rQafFfVdzX8bU-52">
          <mxGeometry relative="1" as="geometry" />
        </mxCell>
        <mxCell id="mcekP03rQafFfVdzX8bU-60" style="edgeStyle=orthogonalEdgeStyle;rounded=0;orthogonalLoop=1;jettySize=auto;html=1;exitX=1;exitY=0.5;exitDx=0;exitDy=0;entryX=0;entryY=0.381;entryDx=0;entryDy=0;entryPerimeter=0;" edge="1" parent="1" source="mcekP03rQafFfVdzX8bU-49" target="mcekP03rQafFfVdzX8bU-53">
          <mxGeometry relative="1" as="geometry" />
        </mxCell>
        <mxCell id="mcekP03rQafFfVdzX8bU-61" style="edgeStyle=orthogonalEdgeStyle;rounded=0;orthogonalLoop=1;jettySize=auto;html=1;exitX=1;exitY=1;exitDx=0;exitDy=0;entryX=0;entryY=0.5;entryDx=0;entryDy=0;" edge="1" parent="1" source="mcekP03rQafFfVdzX8bU-49" target="mcekP03rQafFfVdzX8bU-54">
          <mxGeometry relative="1" as="geometry" />
        </mxCell>
        <mxCell id="mcekP03rQafFfVdzX8bU-62" style="edgeStyle=orthogonalEdgeStyle;rounded=0;orthogonalLoop=1;jettySize=auto;html=1;exitX=0.75;exitY=1;exitDx=0;exitDy=0;entryX=0;entryY=0.5;entryDx=0;entryDy=0;" edge="1" parent="1" source="mcekP03rQafFfVdzX8bU-49" target="mcekP03rQafFfVdzX8bU-55">
          <mxGeometry relative="1" as="geometry" />
        </mxCell>
        <mxCell id="mcekP03rQafFfVdzX8bU-49" value="ENVIO&amp;nbsp;" style="rounded=0;whiteSpace=wrap;html=1;fillColor=#dae8fc;strokeColor=#6c8ebf;" vertex="1" parent="1">
          <mxGeometry x="330" y="440" width="90" height="40" as="geometry" />
        </mxCell>
        <mxCell id="mcekP03rQafFfVdzX8bU-85" value="" style="edgeStyle=orthogonalEdgeStyle;rounded=0;orthogonalLoop=1;jettySize=auto;html=1;" edge="1" parent="1" source="mcekP03rQafFfVdzX8bU-51" target="mcekP03rQafFfVdzX8bU-66">
          <mxGeometry relative="1" as="geometry" />
        </mxCell>
        <mxCell id="mcekP03rQafFfVdzX8bU-51" value="&lt;font style=&quot;font-size: 10px;&quot;&gt;ID_ORDEN_COMPRA&lt;/font&gt;" style="ellipse;whiteSpace=wrap;html=1;fillColor=#f8cecc;strokeColor=#b85450;" vertex="1" parent="1">
          <mxGeometry x="495" y="307.5" width="110" height="52.5" as="geometry" />
        </mxCell>
        <mxCell id="mcekP03rQafFfVdzX8bU-52" value="&lt;font style=&quot;font-size: 10px;&quot;&gt;ID_PEDIDO&lt;/font&gt;" style="ellipse;whiteSpace=wrap;html=1;fillColor=#f8cecc;strokeColor=#b85450;" vertex="1" parent="1">
          <mxGeometry x="495" y="367.5" width="110" height="52.5" as="geometry" />
        </mxCell>
        <mxCell id="mcekP03rQafFfVdzX8bU-53" value="&lt;font style=&quot;font-size: 10px;&quot;&gt;ID_CLIENTE&lt;/font&gt;" style="ellipse;whiteSpace=wrap;html=1;fillColor=#f8cecc;strokeColor=#b85450;" vertex="1" parent="1">
          <mxGeometry x="490" y="433.75" width="110" height="52.5" as="geometry" />
        </mxCell>
        <mxCell id="mcekP03rQafFfVdzX8bU-54" value="&lt;span style=&quot;font-size: 10px;&quot;&gt;CORREO_CLIENTE&lt;/span&gt;" style="ellipse;whiteSpace=wrap;html=1;fillColor=#f8cecc;strokeColor=#b85450;" vertex="1" parent="1">
          <mxGeometry x="490" y="500" width="110" height="52.5" as="geometry" />
        </mxCell>
        <mxCell id="mcekP03rQafFfVdzX8bU-55" value="&lt;font style=&quot;font-size: 10px;&quot;&gt;IMPRESION_COMPRA&lt;/font&gt;" style="ellipse;whiteSpace=wrap;html=1;fillColor=#f8cecc;strokeColor=#b85450;" vertex="1" parent="1">
          <mxGeometry x="490" y="560" width="110" height="52.5" as="geometry" />
        </mxCell>
        <mxCell id="mcekP03rQafFfVdzX8bU-63" value="&lt;font style=&quot;font-size: 36px;&quot;&gt;DER-AGENCIA TURISMO&lt;/font&gt;" style="text;html=1;align=center;verticalAlign=middle;resizable=0;points=[];autosize=1;strokeColor=none;fillColor=none;" vertex="1" parent="1">
          <mxGeometry x="10" width="450" height="60" as="geometry" />
        </mxCell>
        <mxCell id="mcekP03rQafFfVdzX8bU-64" value="1:N" style="text;html=1;align=center;verticalAlign=middle;resizable=0;points=[];autosize=1;strokeColor=none;fillColor=none;" vertex="1" parent="1">
          <mxGeometry x="375" y="300" width="40" height="30" as="geometry" />
        </mxCell>
        <mxCell id="mcekP03rQafFfVdzX8bU-65" value="1:N" style="text;html=1;align=center;verticalAlign=middle;resizable=0;points=[];autosize=1;strokeColor=none;fillColor=none;" vertex="1" parent="1">
          <mxGeometry x="485" width="40" height="30" as="geometry" />
        </mxCell>
        <mxCell id="mcekP03rQafFfVdzX8bU-78" style="edgeStyle=orthogonalEdgeStyle;rounded=0;orthogonalLoop=1;jettySize=auto;html=1;exitX=0.5;exitY=1;exitDx=0;exitDy=0;entryX=0.5;entryY=0;entryDx=0;entryDy=0;" edge="1" parent="1" source="mcekP03rQafFfVdzX8bU-66" target="mcekP03rQafFfVdzX8bU-70">
          <mxGeometry relative="1" as="geometry" />
        </mxCell>
        <mxCell id="mcekP03rQafFfVdzX8bU-66" value="DETALLE&lt;br&gt;COMPRA" style="rhombus;whiteSpace=wrap;html=1;fillColor=#e3c800;strokeColor=#B09500;fontColor=#000000;" vertex="1" parent="1">
          <mxGeometry x="670" y="320" width="110" height="70" as="geometry" />
        </mxCell>
        <mxCell id="mcekP03rQafFfVdzX8bU-79" value="" style="edgeStyle=orthogonalEdgeStyle;rounded=0;orthogonalLoop=1;jettySize=auto;html=1;" edge="1" parent="1" source="mcekP03rQafFfVdzX8bU-70" target="mcekP03rQafFfVdzX8bU-73">
          <mxGeometry relative="1" as="geometry" />
        </mxCell>
        <mxCell id="mcekP03rQafFfVdzX8bU-81" style="edgeStyle=orthogonalEdgeStyle;rounded=0;orthogonalLoop=1;jettySize=auto;html=1;exitX=0.75;exitY=0;exitDx=0;exitDy=0;entryX=-0.021;entryY=0.409;entryDx=0;entryDy=0;entryPerimeter=0;" edge="1" parent="1" source="mcekP03rQafFfVdzX8bU-70" target="mcekP03rQafFfVdzX8bU-71">
          <mxGeometry relative="1" as="geometry" />
        </mxCell>
        <mxCell id="mcekP03rQafFfVdzX8bU-82" style="edgeStyle=orthogonalEdgeStyle;rounded=0;orthogonalLoop=1;jettySize=auto;html=1;exitX=1;exitY=0;exitDx=0;exitDy=0;entryX=0.026;entryY=0.395;entryDx=0;entryDy=0;entryPerimeter=0;" edge="1" parent="1" source="mcekP03rQafFfVdzX8bU-70" target="mcekP03rQafFfVdzX8bU-72">
          <mxGeometry relative="1" as="geometry" />
        </mxCell>
        <mxCell id="mcekP03rQafFfVdzX8bU-83" style="edgeStyle=orthogonalEdgeStyle;rounded=0;orthogonalLoop=1;jettySize=auto;html=1;exitX=1;exitY=1;exitDx=0;exitDy=0;entryX=0;entryY=0.381;entryDx=0;entryDy=0;entryPerimeter=0;" edge="1" parent="1" source="mcekP03rQafFfVdzX8bU-70" target="mcekP03rQafFfVdzX8bU-74">
          <mxGeometry relative="1" as="geometry" />
        </mxCell>
        <mxCell id="mcekP03rQafFfVdzX8bU-84" style="edgeStyle=orthogonalEdgeStyle;rounded=0;orthogonalLoop=1;jettySize=auto;html=1;exitX=0.75;exitY=1;exitDx=0;exitDy=0;entryX=0;entryY=0.571;entryDx=0;entryDy=0;entryPerimeter=0;" edge="1" parent="1" source="mcekP03rQafFfVdzX8bU-70" target="mcekP03rQafFfVdzX8bU-76">
          <mxGeometry relative="1" as="geometry" />
        </mxCell>
        <mxCell id="mcekP03rQafFfVdzX8bU-70" value="PRODUCTO" style="rounded=0;whiteSpace=wrap;html=1;fillColor=#dae8fc;strokeColor=#6c8ebf;" vertex="1" parent="1">
          <mxGeometry x="680" y="440" width="90" height="40" as="geometry" />
        </mxCell>
        <mxCell id="mcekP03rQafFfVdzX8bU-71" value="&lt;span style=&quot;font-size: 10px;&quot;&gt;DESTINO&lt;/span&gt;" style="ellipse;whiteSpace=wrap;html=1;fillColor=#f8cecc;strokeColor=#b85450;" vertex="1" parent="1">
          <mxGeometry x="840" y="328.75" width="110" height="52.5" as="geometry" />
        </mxCell>
        <mxCell id="mcekP03rQafFfVdzX8bU-72" value="&lt;font style=&quot;font-size: 10px;&quot;&gt;HOTEL&lt;/font&gt;" style="ellipse;whiteSpace=wrap;html=1;fillColor=#f8cecc;strokeColor=#b85450;" vertex="1" parent="1">
          <mxGeometry x="840" y="399" width="110" height="52.5" as="geometry" />
        </mxCell>
        <mxCell id="mcekP03rQafFfVdzX8bU-73" value="&lt;font style=&quot;font-size: 10px;&quot;&gt;VUELO&lt;/font&gt;" style="ellipse;whiteSpace=wrap;html=1;fillColor=#f8cecc;strokeColor=#b85450;" vertex="1" parent="1">
          <mxGeometry x="840" y="460" width="110" height="52.5" as="geometry" />
        </mxCell>
        <mxCell id="mcekP03rQafFfVdzX8bU-74" value="&lt;font style=&quot;font-size: 10px;&quot;&gt;HOTEL&lt;/font&gt;" style="ellipse;whiteSpace=wrap;html=1;fillColor=#f8cecc;strokeColor=#b85450;" vertex="1" parent="1">
          <mxGeometry x="840" y="530" width="110" height="52.5" as="geometry" />
        </mxCell>
        <mxCell id="mcekP03rQafFfVdzX8bU-75" style="edgeStyle=orthogonalEdgeStyle;rounded=0;orthogonalLoop=1;jettySize=auto;html=1;exitX=0.5;exitY=1;exitDx=0;exitDy=0;" edge="1" parent="1" source="mcekP03rQafFfVdzX8bU-74" target="mcekP03rQafFfVdzX8bU-74">
          <mxGeometry relative="1" as="geometry" />
        </mxCell>
        <mxCell id="mcekP03rQafFfVdzX8bU-76" value="&lt;font style=&quot;font-size: 10px;&quot;&gt;TOURS&lt;/font&gt;" style="ellipse;whiteSpace=wrap;html=1;fillColor=#f8cecc;strokeColor=#b85450;" vertex="1" parent="1">
          <mxGeometry x="840" y="600" width="110" height="52.5" as="geometry" />
        </mxCell>
      </root>
    </mxGraphModel>
  </diagram>
</mxfile>
